<svg width="19" height="19" viewBox="0 0 19 19" fill="none" xmlns="http://www.w3.org/2000/svg">
<path d="M15.1397 17.8209C16.3698 17.3456 17.3422 16.3731 17.8175 15.1431C18.0425 14.5604 18.1999 13.8956 18.2427 12.9231C18.2528 12.6954 18.2607 12.5041 18.268 12.3123V5.81505C18.2629 5.6795 18.2573 5.53833 18.25 5.37972C18.2073 4.40727 18.0498 3.73909 17.8248 3.15978C17.5925 2.54504 17.2348 1.99441 16.7669 1.53715C16.309 1.07201 15.755 0.710923 15.147 0.482573C14.5643 0.257598 13.8995 0.100115 12.9271 0.0573698C11.9473 0.0106874 11.6363 0 9.152 0C6.66771 0 6.35612 0.010687 5.38029 0.0534323C4.40783 0.0961777 3.73965 0.25366 3.16034 0.478636C2.54559 0.710923 1.99497 1.06863 1.53714 1.53715C1.07257 1.99497 0.711484 2.54897 0.482571 3.15641C0.257596 3.73909 0.100113 4.40389 0.0573681 5.37635C0.0106857 6.35612 0 6.66715 0 9.152C0 11.6369 0.0106853 11.9479 0.0534306 12.9237C0.0961759 13.8962 0.253659 14.5649 0.479197 15.1437C0.711484 15.7584 1.07257 16.309 1.53714 16.7668C1.99497 17.2314 2.54897 17.5931 3.15697 17.8214C3.73965 18.0464 4.40445 18.2039 5.37691 18.2466C6.35274 18.2899 6.66377 18.3006 9.14862 18.3006C11.6335 18.3006 11.9439 18.2899 12.9203 18.2466C13.8928 18.2039 14.5604 18.0458 15.1397 17.8209ZM9.15537 16.6555C6.71327 16.6555 6.42023 16.6448 5.45847 16.6021C4.56475 16.5627 4.08218 16.4125 3.76046 16.2877C3.36394 16.1409 3.00286 15.9086 2.70927 15.6049C2.40555 15.3079 2.1727 14.9507 2.02647 14.5537C1.9016 14.2319 1.75143 13.7454 1.71206 12.8557C1.66932 11.8905 1.65863 11.6009 1.65863 9.15875C1.65863 6.71664 1.66932 6.42361 1.71206 5.4624C1.75143 4.56869 1.9016 4.08612 2.02647 3.7644C2.17326 3.36732 2.40555 3.00623 2.7132 2.7132C3.00961 2.40949 3.36732 2.1772 3.76384 2.0304C4.08555 1.90554 4.57206 1.75537 5.46184 1.716C6.42698 1.67325 6.71664 1.66257 9.15819 1.66257C11.5997 1.66257 11.8933 1.67325 12.8551 1.716C13.7488 1.75537 14.2314 1.90554 14.5531 2.0304C14.9496 2.1772 15.3107 2.40949 15.6037 2.7132C15.9074 3.01017 16.1403 3.36732 16.2865 3.7644C16.4114 4.08612 16.5616 4.57206 16.6009 5.4624C16.6437 6.42755 16.6544 6.7172 16.6544 9.15875C16.6544 11.6003 16.6437 11.8866 16.6009 12.8517C16.5616 13.7454 16.4114 14.228 16.2865 14.5497C15.9789 15.3473 15.3461 15.98 14.5492 16.2871C14.2274 16.412 13.7415 16.5621 12.8512 16.6015C11.886 16.6442 11.5969 16.6555 9.15537 16.6555Z" fill="white"/>
<path d="M9.15219 4.45005C6.55654 4.45005 4.45077 6.55582 4.45077 9.15148C4.45077 11.7471 6.55654 13.8529 9.15219 13.8529C11.7478 13.8529 13.8531 11.7471 13.8531 9.15148C13.8531 6.55582 11.7473 4.45005 9.15219 4.45005ZM9.15219 12.2005C7.46825 12.2005 6.10265 10.8349 6.10265 9.15091C6.10265 7.46697 7.46825 6.10137 9.15219 6.10137C10.8361 6.10137 12.2017 7.46697 12.2017 9.15091C12.2017 10.8349 10.8361 12.2005 9.15219 12.2005Z" fill="white"/>
<path d="M15.1353 4.26418C15.1353 3.65787 14.6438 3.16687 14.0374 3.16687C13.4311 3.16687 12.9401 3.65844 12.9401 4.26418C12.9401 4.86993 13.4317 5.3615 14.0374 5.3615C14.6432 5.3615 15.1353 4.87049 15.1353 4.26418Z" fill="white"/>
</svg>
